<mxfile host="app.diagrams.net" agent="Mozilla/5.0 (Windows NT 10.0; Win64; x64) AppleWebKit/537.36 (KHTML, like Gecko) Chrome/141.0.0.0 Safari/537.36" version="28.2.5">
  <diagram name="Page-1" id="SUomZo11OMpZdKlT2iFS">
    <mxGraphModel dx="1042" dy="574" grid="1" gridSize="10" guides="1" tooltips="1" connect="1" arrows="1" fold="1" page="1" pageScale="1" pageWidth="850" pageHeight="1100" math="0" shadow="0">
      <root>
        <mxCell id="0" />
        <mxCell id="1" parent="0" />
        <mxCell id="IoPwc7aD8Yi5-KbMHRe5-21" value="Blood Inventory" style="whiteSpace=wrap;html=1;align=center;fontSize=20;fillColor=#1ba1e2;fontColor=#ffffff;strokeColor=#006EAF;" vertex="1" parent="1">
          <mxGeometry x="580" y="330" width="150" height="60" as="geometry" />
        </mxCell>
        <mxCell id="IoPwc7aD8Yi5-KbMHRe5-22" value="Blood" style="whiteSpace=wrap;html=1;align=center;fillColor=#1ba1e2;fontColor=#ffffff;strokeColor=#006EAF;fontSize=20;" vertex="1" parent="1">
          <mxGeometry x="110" y="340" width="100" height="50" as="geometry" />
        </mxCell>
        <mxCell id="IoPwc7aD8Yi5-KbMHRe5-24" value="Stored" style="shape=rhombus;perimeter=rhombusPerimeter;whiteSpace=wrap;html=1;align=center;fontSize=18;fillColor=#e3c800;fontColor=#000000;strokeColor=#B09500;" vertex="1" parent="1">
          <mxGeometry x="340" y="340" width="120" height="60" as="geometry" />
        </mxCell>
        <mxCell id="IoPwc7aD8Yi5-KbMHRe5-25" value="" style="endArrow=none;html=1;rounded=0;exitX=0;exitY=0.5;exitDx=0;exitDy=0;entryX=1;entryY=0.5;entryDx=0;entryDy=0;" edge="1" parent="1" source="IoPwc7aD8Yi5-KbMHRe5-24" target="IoPwc7aD8Yi5-KbMHRe5-22">
          <mxGeometry relative="1" as="geometry">
            <mxPoint x="320" y="369.5" as="sourcePoint" />
            <mxPoint x="220" y="370" as="targetPoint" />
          </mxGeometry>
        </mxCell>
        <mxCell id="IoPwc7aD8Yi5-KbMHRe5-26" value="N" style="resizable=0;html=1;whiteSpace=wrap;align=right;verticalAlign=bottom;" connectable="0" vertex="1" parent="IoPwc7aD8Yi5-KbMHRe5-25">
          <mxGeometry x="1" relative="1" as="geometry">
            <mxPoint x="20" as="offset" />
          </mxGeometry>
        </mxCell>
        <mxCell id="IoPwc7aD8Yi5-KbMHRe5-27" value="" style="endArrow=none;html=1;rounded=0;entryX=0;entryY=0.5;entryDx=0;entryDy=0;exitX=1;exitY=0.5;exitDx=0;exitDy=0;" edge="1" parent="1" source="IoPwc7aD8Yi5-KbMHRe5-24" target="IoPwc7aD8Yi5-KbMHRe5-21">
          <mxGeometry relative="1" as="geometry">
            <mxPoint x="460" y="369.5" as="sourcePoint" />
            <mxPoint x="575" y="369.5" as="targetPoint" />
          </mxGeometry>
        </mxCell>
        <mxCell id="IoPwc7aD8Yi5-KbMHRe5-28" value="1" style="resizable=0;html=1;whiteSpace=wrap;align=right;verticalAlign=bottom;" connectable="0" vertex="1" parent="IoPwc7aD8Yi5-KbMHRe5-27">
          <mxGeometry x="1" relative="1" as="geometry">
            <mxPoint x="-5" y="1" as="offset" />
          </mxGeometry>
        </mxCell>
        <mxCell id="IoPwc7aD8Yi5-KbMHRe5-30" value="Blood Type" style="ellipse;whiteSpace=wrap;html=1;align=center;fontStyle=4;fillColor=#d80073;fontColor=#ffffff;strokeColor=#A50040;fontSize=15;" vertex="1" parent="1">
          <mxGeometry x="80" y="230" width="100" height="40" as="geometry" />
        </mxCell>
        <mxCell id="IoPwc7aD8Yi5-KbMHRe5-31" value="" style="endArrow=none;html=1;rounded=0;exitX=0.5;exitY=1;exitDx=0;exitDy=0;" edge="1" parent="1" source="IoPwc7aD8Yi5-KbMHRe5-30">
          <mxGeometry relative="1" as="geometry">
            <mxPoint x="30" y="280" as="sourcePoint" />
            <mxPoint x="160" y="340" as="targetPoint" />
          </mxGeometry>
        </mxCell>
        <mxCell id="IoPwc7aD8Yi5-KbMHRe5-32" value="Blood Group" style="ellipse;whiteSpace=wrap;html=1;align=center;fontSize=15;fillColor=#d80073;fontColor=#ffffff;strokeColor=#A50040;" vertex="1" parent="1">
          <mxGeometry x="220" y="240" width="100" height="40" as="geometry" />
        </mxCell>
        <mxCell id="IoPwc7aD8Yi5-KbMHRe5-38" value="" style="endArrow=none;html=1;rounded=0;entryX=0.5;entryY=1;entryDx=0;entryDy=0;" edge="1" parent="1" target="IoPwc7aD8Yi5-KbMHRe5-32">
          <mxGeometry relative="1" as="geometry">
            <mxPoint x="160" y="340" as="sourcePoint" />
            <mxPoint x="300" y="339" as="targetPoint" />
          </mxGeometry>
        </mxCell>
        <mxCell id="IoPwc7aD8Yi5-KbMHRe5-52" value="&lt;u&gt;Unit ID&lt;/u&gt;" style="ellipse;whiteSpace=wrap;html=1;align=center;fontSize=15;fillColor=#d80073;fontColor=#ffffff;strokeColor=#A50040;" vertex="1" parent="1">
          <mxGeometry x="490" y="260" width="100" height="40" as="geometry" />
        </mxCell>
        <mxCell id="IoPwc7aD8Yi5-KbMHRe5-54" value="&lt;span data-end=&quot;1280&quot; data-start=&quot;1261&quot;&gt;Expiration Dates&lt;/span&gt;" style="ellipse;whiteSpace=wrap;html=1;align=center;fontSize=15;fillColor=#d80073;fontColor=#ffffff;strokeColor=#A50040;" vertex="1" parent="1">
          <mxGeometry x="465" y="435" width="140" height="40" as="geometry" />
        </mxCell>
        <mxCell id="IoPwc7aD8Yi5-KbMHRe5-55" value="Availability Status" style="ellipse;whiteSpace=wrap;html=1;align=center;fontSize=15;fillColor=#d80073;fontColor=#ffffff;strokeColor=#A50040;" vertex="1" parent="1">
          <mxGeometry x="710" y="260" width="130" height="40" as="geometry" />
        </mxCell>
        <mxCell id="IoPwc7aD8Yi5-KbMHRe5-56" value="" style="endArrow=none;html=1;rounded=0;exitX=0.5;exitY=1;exitDx=0;exitDy=0;entryX=0.5;entryY=0;entryDx=0;entryDy=0;" edge="1" parent="1" source="IoPwc7aD8Yi5-KbMHRe5-21" target="IoPwc7aD8Yi5-KbMHRe5-54">
          <mxGeometry relative="1" as="geometry">
            <mxPoint x="360" y="450" as="sourcePoint" />
            <mxPoint x="520" y="450" as="targetPoint" />
          </mxGeometry>
        </mxCell>
        <mxCell id="IoPwc7aD8Yi5-KbMHRe5-58" value="" style="endArrow=none;html=1;rounded=0;exitX=0.5;exitY=1;exitDx=0;exitDy=0;entryX=0.5;entryY=0;entryDx=0;entryDy=0;" edge="1" parent="1" source="IoPwc7aD8Yi5-KbMHRe5-52" target="IoPwc7aD8Yi5-KbMHRe5-21">
          <mxGeometry relative="1" as="geometry">
            <mxPoint x="520" y="270" as="sourcePoint" />
            <mxPoint x="595" y="330" as="targetPoint" />
          </mxGeometry>
        </mxCell>
        <mxCell id="IoPwc7aD8Yi5-KbMHRe5-59" value="" style="endArrow=none;html=1;rounded=0;exitX=0.5;exitY=1;exitDx=0;exitDy=0;entryX=0.5;entryY=0;entryDx=0;entryDy=0;" edge="1" parent="1" source="IoPwc7aD8Yi5-KbMHRe5-51" target="IoPwc7aD8Yi5-KbMHRe5-21">
          <mxGeometry relative="1" as="geometry">
            <mxPoint x="655" y="230" as="sourcePoint" />
            <mxPoint x="730" y="290" as="targetPoint" />
          </mxGeometry>
        </mxCell>
        <mxCell id="IoPwc7aD8Yi5-KbMHRe5-60" value="" style="endArrow=none;html=1;rounded=0;exitX=0.5;exitY=1;exitDx=0;exitDy=0;entryX=0.5;entryY=0;entryDx=0;entryDy=0;" edge="1" parent="1" source="IoPwc7aD8Yi5-KbMHRe5-55" target="IoPwc7aD8Yi5-KbMHRe5-21">
          <mxGeometry relative="1" as="geometry">
            <mxPoint x="765" y="280" as="sourcePoint" />
            <mxPoint x="840" y="340" as="targetPoint" />
          </mxGeometry>
        </mxCell>
        <mxCell id="IoPwc7aD8Yi5-KbMHRe5-62" value="" style="endArrow=none;html=1;rounded=0;exitX=0.5;exitY=1;exitDx=0;exitDy=0;entryX=0.5;entryY=0;entryDx=0;entryDy=0;" edge="1" parent="1" target="IoPwc7aD8Yi5-KbMHRe5-51">
          <mxGeometry relative="1" as="geometry">
            <mxPoint x="655" y="230" as="sourcePoint" />
            <mxPoint x="655" y="330" as="targetPoint" />
          </mxGeometry>
        </mxCell>
        <mxCell id="IoPwc7aD8Yi5-KbMHRe5-51" value="Blood Type" style="ellipse;whiteSpace=wrap;html=1;align=center;fontSize=15;fillColor=#d80073;fontColor=#ffffff;strokeColor=#A50040;" vertex="1" parent="1">
          <mxGeometry x="605" y="220" width="100" height="40" as="geometry" />
        </mxCell>
        <mxCell id="IoPwc7aD8Yi5-KbMHRe5-69" value="AB" style="ellipse;whiteSpace=wrap;html=1;align=center;fontSize=15;fillColor=#d80073;fontColor=#ffffff;strokeColor=#A50040;" vertex="1" parent="1">
          <mxGeometry x="190" y="170" width="60" height="40" as="geometry" />
        </mxCell>
        <mxCell id="IoPwc7aD8Yi5-KbMHRe5-70" value="B" style="ellipse;whiteSpace=wrap;html=1;align=center;fontSize=15;fillColor=#d80073;fontColor=#ffffff;strokeColor=#A50040;" vertex="1" parent="1">
          <mxGeometry x="120" y="160" width="60" height="40" as="geometry" />
        </mxCell>
        <mxCell id="IoPwc7aD8Yi5-KbMHRe5-71" value="A" style="ellipse;whiteSpace=wrap;html=1;align=center;fontSize=15;fillColor=#d80073;fontColor=#ffffff;strokeColor=#A50040;" vertex="1" parent="1">
          <mxGeometry x="50" y="160" width="60" height="40" as="geometry" />
        </mxCell>
        <mxCell id="IoPwc7aD8Yi5-KbMHRe5-73" value="O" style="ellipse;whiteSpace=wrap;html=1;align=center;fontSize=15;fillColor=#d80073;fontColor=#ffffff;strokeColor=#A50040;" vertex="1" parent="1">
          <mxGeometry y="200" width="60" height="40" as="geometry" />
        </mxCell>
        <mxCell id="IoPwc7aD8Yi5-KbMHRe5-75" value="" style="endArrow=none;html=1;rounded=0;entryX=0.5;entryY=0;entryDx=0;entryDy=0;" edge="1" parent="1" target="IoPwc7aD8Yi5-KbMHRe5-30">
          <mxGeometry relative="1" as="geometry">
            <mxPoint x="60" y="219.5" as="sourcePoint" />
            <mxPoint x="220" y="219.5" as="targetPoint" />
          </mxGeometry>
        </mxCell>
        <mxCell id="IoPwc7aD8Yi5-KbMHRe5-76" value="" style="endArrow=none;html=1;rounded=0;entryX=0.5;entryY=0;entryDx=0;entryDy=0;" edge="1" parent="1" target="IoPwc7aD8Yi5-KbMHRe5-30">
          <mxGeometry relative="1" as="geometry">
            <mxPoint x="80" y="200" as="sourcePoint" />
            <mxPoint x="150" y="210.5" as="targetPoint" />
          </mxGeometry>
        </mxCell>
        <mxCell id="IoPwc7aD8Yi5-KbMHRe5-77" value="" style="endArrow=none;html=1;rounded=0;entryX=0.5;entryY=0;entryDx=0;entryDy=0;" edge="1" parent="1" target="IoPwc7aD8Yi5-KbMHRe5-30">
          <mxGeometry relative="1" as="geometry">
            <mxPoint x="150" y="200" as="sourcePoint" />
            <mxPoint x="220" y="210.5" as="targetPoint" />
          </mxGeometry>
        </mxCell>
        <mxCell id="IoPwc7aD8Yi5-KbMHRe5-78" value="" style="endArrow=none;html=1;rounded=0;entryX=0.5;entryY=0;entryDx=0;entryDy=0;exitX=0.5;exitY=1;exitDx=0;exitDy=0;" edge="1" parent="1" source="IoPwc7aD8Yi5-KbMHRe5-69" target="IoPwc7aD8Yi5-KbMHRe5-30">
          <mxGeometry relative="1" as="geometry">
            <mxPoint x="200" y="230" as="sourcePoint" />
            <mxPoint x="180" y="260" as="targetPoint" />
          </mxGeometry>
        </mxCell>
        <mxCell id="IoPwc7aD8Yi5-KbMHRe5-89" value="AB" style="ellipse;whiteSpace=wrap;html=1;align=center;fontSize=15;fillColor=#d80073;fontColor=#ffffff;strokeColor=#A50040;" vertex="1" parent="1">
          <mxGeometry x="710" y="160" width="60" height="40" as="geometry" />
        </mxCell>
        <mxCell id="IoPwc7aD8Yi5-KbMHRe5-90" value="B" style="ellipse;whiteSpace=wrap;html=1;align=center;fontSize=15;fillColor=#d80073;fontColor=#ffffff;strokeColor=#A50040;" vertex="1" parent="1">
          <mxGeometry x="640" y="150" width="60" height="40" as="geometry" />
        </mxCell>
        <mxCell id="IoPwc7aD8Yi5-KbMHRe5-91" value="A" style="ellipse;whiteSpace=wrap;html=1;align=center;fontSize=15;fillColor=#d80073;fontColor=#ffffff;strokeColor=#A50040;" vertex="1" parent="1">
          <mxGeometry x="570" y="150" width="60" height="40" as="geometry" />
        </mxCell>
        <mxCell id="IoPwc7aD8Yi5-KbMHRe5-92" value="O" style="ellipse;whiteSpace=wrap;html=1;align=center;fontSize=15;fillColor=#d80073;fontColor=#ffffff;strokeColor=#A50040;" vertex="1" parent="1">
          <mxGeometry x="520" y="190" width="60" height="40" as="geometry" />
        </mxCell>
        <mxCell id="IoPwc7aD8Yi5-KbMHRe5-93" value="" style="endArrow=none;html=1;rounded=0;entryX=0.5;entryY=0;entryDx=0;entryDy=0;" edge="1" parent="1">
          <mxGeometry relative="1" as="geometry">
            <mxPoint x="580" y="209.5" as="sourcePoint" />
            <mxPoint x="650" y="220" as="targetPoint" />
          </mxGeometry>
        </mxCell>
        <mxCell id="IoPwc7aD8Yi5-KbMHRe5-94" value="" style="endArrow=none;html=1;rounded=0;entryX=0.5;entryY=0;entryDx=0;entryDy=0;" edge="1" parent="1">
          <mxGeometry relative="1" as="geometry">
            <mxPoint x="600" y="190" as="sourcePoint" />
            <mxPoint x="650" y="220" as="targetPoint" />
          </mxGeometry>
        </mxCell>
        <mxCell id="IoPwc7aD8Yi5-KbMHRe5-95" value="" style="endArrow=none;html=1;rounded=0;entryX=0.5;entryY=0;entryDx=0;entryDy=0;" edge="1" parent="1">
          <mxGeometry relative="1" as="geometry">
            <mxPoint x="670" y="190" as="sourcePoint" />
            <mxPoint x="650" y="220" as="targetPoint" />
          </mxGeometry>
        </mxCell>
        <mxCell id="IoPwc7aD8Yi5-KbMHRe5-96" value="" style="endArrow=none;html=1;rounded=0;entryX=0.5;entryY=0;entryDx=0;entryDy=0;exitX=0.5;exitY=1;exitDx=0;exitDy=0;" edge="1" parent="1" source="IoPwc7aD8Yi5-KbMHRe5-89">
          <mxGeometry relative="1" as="geometry">
            <mxPoint x="720" y="220" as="sourcePoint" />
            <mxPoint x="650" y="220" as="targetPoint" />
          </mxGeometry>
        </mxCell>
        <mxCell id="IoPwc7aD8Yi5-KbMHRe5-97" value="RH Factor" style="ellipse;whiteSpace=wrap;html=1;align=center;fontSize=15;fillColor=#d80073;fontColor=#ffffff;strokeColor=#A50040;" vertex="1" parent="1">
          <mxGeometry y="270" width="100" height="50" as="geometry" />
        </mxCell>
        <mxCell id="IoPwc7aD8Yi5-KbMHRe5-98" value="" style="endArrow=none;html=1;rounded=0;exitX=0.5;exitY=1;exitDx=0;exitDy=0;entryX=0.5;entryY=0;entryDx=0;entryDy=0;" edge="1" parent="1" source="IoPwc7aD8Yi5-KbMHRe5-97" target="IoPwc7aD8Yi5-KbMHRe5-22">
          <mxGeometry relative="1" as="geometry">
            <mxPoint x="490" y="430" as="sourcePoint" />
            <mxPoint x="605" y="460" as="targetPoint" />
          </mxGeometry>
        </mxCell>
        <mxCell id="IoPwc7aD8Yi5-KbMHRe5-101" value="Last Update" style="ellipse;whiteSpace=wrap;html=1;align=center;fontSize=15;fillColor=#d80073;fontColor=#ffffff;strokeColor=#A50040;" vertex="1" parent="1">
          <mxGeometry x="600" y="470" width="100" height="50" as="geometry" />
        </mxCell>
        <mxCell id="IoPwc7aD8Yi5-KbMHRe5-102" value="" style="endArrow=none;html=1;rounded=0;exitX=0.5;exitY=0;exitDx=0;exitDy=0;entryX=0.5;entryY=1;entryDx=0;entryDy=0;" edge="1" parent="1" source="IoPwc7aD8Yi5-KbMHRe5-101" target="IoPwc7aD8Yi5-KbMHRe5-21">
          <mxGeometry relative="1" as="geometry">
            <mxPoint x="660" y="410" as="sourcePoint" />
            <mxPoint x="795" y="390" as="targetPoint" />
          </mxGeometry>
        </mxCell>
        <mxCell id="IoPwc7aD8Yi5-KbMHRe5-104" value="&lt;span data-end=&quot;1280&quot; data-start=&quot;1261&quot;&gt;Donation Date&lt;/span&gt;" style="ellipse;whiteSpace=wrap;html=1;align=center;fontSize=15;fillColor=#d80073;fontColor=#ffffff;strokeColor=#A50040;" vertex="1" parent="1">
          <mxGeometry x="700" y="435" width="140" height="40" as="geometry" />
        </mxCell>
        <mxCell id="IoPwc7aD8Yi5-KbMHRe5-105" value="" style="endArrow=none;html=1;rounded=0;exitX=0.5;exitY=0;exitDx=0;exitDy=0;entryX=0.5;entryY=1;entryDx=0;entryDy=0;" edge="1" parent="1" source="IoPwc7aD8Yi5-KbMHRe5-104" target="IoPwc7aD8Yi5-KbMHRe5-21">
          <mxGeometry relative="1" as="geometry">
            <mxPoint x="772.5" y="435" as="sourcePoint" />
            <mxPoint x="777.5" y="355" as="targetPoint" />
          </mxGeometry>
        </mxCell>
      </root>
    </mxGraphModel>
  </diagram>
</mxfile>
